<svg fill="none" xmlns="http://www.w3.org/2000/svg" viewBox="0 0 20 20" class="header__top-menu-icon" width="20" height="20"><path fill-rule="evenodd" clip-rule="evenodd" d="M.5881 8.507v.3065c0 3.2423 2.4543 5.9246 5.647 6.3707V16.32c0 1.6207 1.9351 2.5061 3.2096 1.4685l3.1193-2.5393c3.7869-.0285 6.8477-3.0361 6.8477-6.7422 0-3.7237-3.0902-6.7424-6.902-6.7424H7.4901C3.6782 1.7646.588 4.7833.588 8.507Zm11.0012 5.142-3.3496 2.7269c-.0485.0395-.1221.0058-.1221-.0559v-1.99a.9015.9015 0 0 0-.0285-.2252c-.1028-.3989-.4725-.6942-.9127-.6942-2.599 0-4.706-2.0582-4.706-4.597V8.507c0-2.7081 2.2474-4.9035 5.0197-4.9035h5.0196c2.7723 0 5.0196 2.1954 5.0196 4.9035 0 2.7082-2.2473 4.9036-5.0196 4.9036h-.2462a1.069 1.069 0 0 0-.6742.2384ZM5.7646 7.2548c-.7797 0-1.4118.6146-1.4118 1.3726s.6321 1.3725 1.4118 1.3725 1.4118-.6145 1.4118-1.3725-.6321-1.3726-1.4118-1.3726Zm2.8235 1.3726c0-.758.6321-1.3726 1.4118-1.3726s1.4118.6146 1.4118 1.3726-.6321 1.3725-1.4118 1.3725-1.4118-.6145-1.4118-1.3725Zm5.6471-1.3726c-.7797 0-1.4118.6146-1.4118 1.3726s.6321 1.3725 1.4118 1.3725 1.4118-.6145 1.4118-1.3725-.6321-1.3726-1.4118-1.3726Z" fill="#CECFD6"></path></svg>