<svg fill="none" xmlns="http://www.w3.org/2000/svg" viewBox="0 0 32 32" class="header__online-icon"><path fill-rule="evenodd" clip-rule="evenodd" d="m6.952 25.6684-.0002.0003.0107.0091c.2542.2169.5834.3312.9202.3216.3367-.0095.6587-.1421.8994-.3733.2411-.2314.3826-.5444.3928-.8755.0101-.3311-.112-.6518-.3388-.8968l.0003-.0003-.01-.0097C6.7964 21.8942 5.658 19.2525 5.658 16.5c0-2.7524 1.1384-5.3942 3.1682-7.3438l.0003.0003.0095-.0103c.2268-.245.349-.5657.3388-.8968-.0102-.331-.1517-.644-.3927-.8755-.2408-.2312-.5628-.3638-.8995-.3734-.3368-.0095-.666.1048-.9202.3216l-.0002-.0003-.0102.0098C4.4226 9.7624 3 13.06 3 16.5s1.4226 6.7376 3.952 9.1684Zm3.8684-3.4457-.0004.0005.0141.0116c.2552.2103.582.3191.915.3069.3331-.0122.6507-.1446.8889-.3733.2384-.229.3797-.5377.3927-.8651.013-.3274-.1034-.6459-.3234-.8921l.0005-.0005-.0131-.0126c-1.077-1.0342-1.6802-2.4348-1.6802-3.8932 0-1.4555.6009-2.8536 1.674-3.8873a1.2936 1.2936 0 0 0 .3268-.4111 1.254 1.254 0 0 0 .1333-.5142 1.2508 1.2508 0 0 0-.0922-.5228 1.2862 1.2862 0 0 0-.3006-.4412 1.3373 1.3373 0 0 0-.4556-.2864 1.3727 1.3727 0 0 0-.5341-.0869 1.3707 1.3707 0 0 0-.526.1258 1.3288 1.3288 0 0 0-.4259.3124c-1.5727 1.5148-2.4578 3.5685-2.4578 5.7117 0 2.1461.8874 4.2024 2.464 5.7178Zm1.9816-10.123a1.0574 1.0574 0 0 1-.2729.3404c-1.1226 1.0782-1.7533 2.5403-1.7533 4.0648 0 1.5246.6307 2.9867 1.7533 4.0648.1796.201.2736.4596.2631.7242-.0105.2646-.1247.5156-.3197.7029-.1951.1872-.4565.2968-.7321.3069H11.74c.2756-.0101.537-.1197.732-.3069.1951-.1873.3092-.4383.3198-.7029.0105-.2646-.0835-.5232-.2631-.7242-1.1226-1.0781-1.7533-2.5402-1.7533-4.0648 0-1.5245.6307-2.9866 1.7533-4.0647a1.0572 1.0572 0 0 0 .2728-.3405 1.0123 1.0123 0 0 0 .0334-.8403 1.0462 1.0462 0 0 0-.245-.3594 1.098 1.098 0 0 0-.3744-.2353 1.1346 1.1346 0 0 0 .0005 0c.1403.0528.2677.1329.3743.2352.1066.1024.19.2247.245.3595a1.0123 1.0123 0 0 1-.0333.8403Zm-3.8657-3.843c-.0082-.2675-.1226-.522-.3197-.7112-.197-.1892-.462-.299-.7407-.3069a1.1283 1.1283 0 0 0-.0004 0c.2786.0079.5436.1177.7407.307.1971.1892.3115.4436.3197.711.0082.2676-.0904.528-.2756.728C6.585 10.9782 5.419 13.6814 5.419 16.5s1.1659 5.5219 3.2413 7.5154c.1852.2.2838.4604.2756.7279-.0082.2676-.1226.522-.3197.7112-.197.1892-.462.299-.7407.3069h.0004c.2787-.0079.5436-.1177.7407-.3069.1971-.1893.3115-.4437.3197-.7112.0082-.2675-.0904-.5279-.2755-.7279-2.0755-1.9935-3.2414-4.6968-3.2414-7.5154s1.1659-5.5219 3.2414-7.5154c.1851-.2.2837-.4604.2755-.728Zm17.1012 17.4211.0002.0004.0102-.0098C28.5774 23.2376 30 19.9401 30 16.5s-1.4226-6.7376-3.9521-9.1684l.0003-.0003-.0107-.0091c-.2542-.217-.5834-.3312-.9202-.3216-.3367.0095-.6587.1421-.8995.3733-.241.2314-.3825.5444-.3927.8755-.0101.331.112.6518.3388.8968l-.0003.0003.0101.0097c2.0298 1.9496 3.1682 4.5913 3.1682 7.3438 0 2.7525-1.1384 5.3942-3.1682 7.3438l-.0003-.0003-.0095.0103c-.2268.245-.3489.5657-.3388.8968.0102.3311.1517.6441.3927.8755.2408.2312.5628.3638.8995.3733.3368.0096.666-.1047.9202-.3216Zm-3.8198-3.443.0005.0006.0132-.0127c1.5766-1.5154 2.464-3.5718 2.464-5.7178 0-2.1432-.8851-4.1969-2.4578-5.7117a1.3288 1.3288 0 0 0-.4259-.3124 1.3707 1.3707 0 0 0-.526-.1258 1.3727 1.3727 0 0 0-.5341.0869 1.3373 1.3373 0 0 0-.4556.2864 1.2862 1.2862 0 0 0-.3006.4412 1.2508 1.2508 0 0 0-.0922.5228c.0071.1787.0526.3538.1333.5142.0792.1575.1906.2973.3268.4111 1.0731 1.0337 1.674 2.4318 1.674 3.8873 0 1.4584-.6032 2.859-1.6802 3.8932l-.0005-.0005-.0121.0136c-.22.2462-.3364.5647-.3234.8921.013.3274.1543.6361.3927.8651.2382.2287.5558.3611.8889.3733.333.0122.6598-.0966.915-.3069Zm-.5066-11.538c.1358.0629.2565.1521.3546.2619 1.531 1.4715 2.391 3.4663 2.391 5.5462s-.86 4.0747-2.391 5.5463a1.1207 1.1207 0 0 1-.6868.253 1.1212 1.1212 0 0 0 .6864-.253c1.531-1.4715 2.391-3.4664 2.391-5.5463 0-2.0798-.86-4.0747-2.391-5.5462a1.0897 1.0897 0 0 0-.3546-.2619 1.1293 1.1293 0 0 0 .0004 0Zm3.5672-3.452c.223.024.4344.1136.604.2584 2.4838 2.3869 3.879 5.6228 3.879 8.9968 0 3.374-1.3952 6.6099-3.879 8.9968-.1946.1661-.444.2596-.703.2648a1.1186 1.1186 0 0 0 .7026-.2647c2.4838-2.3869 3.879-5.6229 3.879-8.9969 0-3.374-1.3952-6.61-3.879-8.9968a1.1148 1.1148 0 0 0-.6036-.2585ZM19.1522 16.5c0-1.4615-1.1875-2.6462-2.6524-2.6462a3.4004 3.4004 0 0 0 .0005 0c1.4648 0 2.6523 1.1847 2.6523 2.6462 0 1.4213-1.1231 2.5809-2.5322 2.6436 1.4089-.0629 2.5318-1.2224 2.5318-2.6436Zm.2391 0c0-1.593-1.2944-2.8844-2.891-2.8844-1.5967 0-2.8911 1.2914-2.8911 2.8844 0 1.593 1.2944 2.8844 2.8911 2.8844 1.5966 0 2.891-1.2914 2.891-2.8844Z" fill="url(#a)"></path><defs><radialGradient id="a" cx="0" cy="0" r="1" gradientUnits="userSpaceOnUse" gradientTransform="matrix(13.5 0 0 9.5 16.5 16.5)"><stop stop-color="#43B570"></stop><stop offset="1" stop-color="#43B570" stop-opacity="0.29"></stop></radialGradient></defs></svg>