<svg fill="none" xmlns="http://www.w3.org/2000/svg" viewBox="0 0 26 26" class="auth__logo-icon" width="26" height="26"><path fill-rule="evenodd" clip-rule="evenodd" d="M19.8248 10.075c0 1.625-1.3 2.99-2.99 2.99-1.625 0-2.99-1.3-2.99-2.99 0-1.625 1.3-2.99 2.99-2.99 1.625 0 2.99 1.365 2.99 2.99Zm-5.2 0c0 1.235.975 2.21 2.21 2.21 1.235 0 2.21-.975 2.21-2.21 0-1.235-.975-2.21-2.21-2.21-1.235 0-2.21.975-2.21 2.21Zm-4.615 5.72-1.495-.65c.585-.195 1.235-.195 1.82 0 .65.26 1.105.715 1.365 1.365s.26 1.3 0 1.95c-.52 1.3-2.015 1.885-3.25 1.365-.585-.26-1.04-.715-1.3-1.235l1.43.585c.91.39 2.015-.065 2.405-.975.39-.91-.065-2.015-.975-2.405Zm2.99 8.905c-5.265 0-9.75-3.51-11.245-8.255l4.42 1.82c.195.975.91 1.885 1.95 2.275 1.625.715 3.575-.065 4.225-1.755.195-.455.26-.91.26-1.365l4.095-2.925h.13c2.47 0 4.42-2.015 4.42-4.485s-2.015-4.42-4.42-4.42c-2.47 0-4.42 2.015-4.42 4.42v.065L9.4898 14.3c-.455 0-.91.065-1.365.26-.195.065-.39.195-.52.26l-6.305-2.6c.39-6.11 5.46-10.92 11.7-10.92 6.5 0 11.7 5.265 11.7 11.7s-5.265 11.7-11.7 11.7Z" fill="#000"></path></svg>