<svg xmlns="http://www.w3.org/2000/svg" viewBox="0 0 24 21"><path fill-rule="evenodd" fill="#392C22" d="M15.81 5.914c0 1.172.965 2.123 2.156 2.123 1.19 0 2.156-.951 2.156-2.123 0-1.173-.966-2.123-2.156-2.123-1.191 0-2.156.95-2.156 2.123zm5.713-3.503a5.086 5.086 0 00-7.115 0 4.903 4.903 0 00-1.422 2.795l-4.597 6.861a4.57 4.57 0 00-1.795.465l-3.547-2.73a1.906 1.906 0 00-2.648.32 1.838 1.838 0 00.325 2.607l3.502 2.696a4.421 4.421 0 001.188 4.264 4.589 4.589 0 006.418 0 4.42 4.42 0 001.259-3.94l5.593-4.932a5.03 5.03 0 002.839-1.4 4.902 4.902 0 000-7.006zm-12.9 17.097c-1.67 0-3.025-1.333-3.025-2.978l.001-.047 1.503 1.156c.345.266.754.394 1.16.394.561 0 1.116-.245 1.488-.713a1.84 1.84 0 00-.324-2.608l-1.427-1.098a3.13 3.13 0 01.624-.063c1.671 0 3.025 1.334 3.025 2.979s-1.354 2.978-3.025 2.978zm9.343-10.056c-1.985 0-3.594-1.584-3.594-3.538 0-1.954 1.609-3.539 3.594-3.539 1.984 0 3.593 1.585 3.593 3.539 0 1.954-1.609 3.538-3.593 3.538z"/></svg>
