<?xml version="1.0" encoding="UTF-8"?>
<svg id="_Слой_2" data-name="Слой 2" xmlns="http://www.w3.org/2000/svg" viewBox="0 0 278.8 36">
  <defs>
    <style>
      .cls-1 {
        fill: #17171f;
      }
    </style>
  </defs>
  <g id="_Слой_1-2" data-name="Слой 1">
    <g>
      <path class="cls-1" d="M7.05,20.95v8.6H23.25v5.95H0V.5H22.75V6.45H7.05V15h14.95v5.95H7.05Z"/>
      <path class="cls-1" d="M37.45,29.3h16.85v6.2H27.25v-3.05L43.3,6.7h-15.3V.5h25.55V3.55l-16.1,25.75Z"/>
      <path class="cls-1" d="M59.3,35.5V.5h10.2c15.25,0,18.05,6.6,18.05,17.85,0,10.05-3.3,17.15-17.4,17.15h-10.85Zm7.05-29.05V29.55h3.95c8.95,0,10.2-4.35,10.2-11.2,0-7.85-.95-11.9-11-11.9h-3.15Z"/>
      <path class="cls-1" d="M109.35,20.7l8.65,14.8h-8.05l-8.3-14.25h-1.9v14.25h-7.05V.5h11.9c7.8,0,11.95,3.7,11.95,9.95,0,5.6-2.5,9-7.2,10.25Zm-9.6-14.25V15.3h4.85c3.3,0,4.9-1.05,4.9-4.65,0-2.5-1.6-4.2-4.9-4.2h-4.85Z"/>
      <path class="cls-1" d="M120.6,18c0-13.7,6.2-18,15.5-18s15.55,4.3,15.55,18-6.2,18-15.55,18-15.5-4.3-15.5-18Zm24,0c0-9.5-3.4-12.05-8.5-12.05s-8.45,2.55-8.45,12.05,3.4,12.05,8.45,12.05,8.5-2.55,8.5-12.05Z"/>
      <path class="cls-1" d="M163.85,22.55v12.95h-7.05V.5h11.35c8.15,0,12.5,3.45,12.5,10.55,0,8.2-4.35,11.5-12.45,11.5h-4.35Zm0-16.1v10.15h4.35c3.55,0,5.4-1.15,5.4-5.55,0-3.7-1.85-4.6-5.4-4.6h-4.35Z"/>
      <path class="cls-1" d="M180.3,29.9h5.7v5.6h-5.7v-5.6Z"/>
      <path class="cls-1" d="M197.7,22.55v12.95h-7.05V.5h11.35c8.15,0,12.5,3.45,12.5,10.55,0,8.2-4.35,11.5-12.45,11.5h-4.35Zm0-16.1v10.15h4.35c3.55,0,5.4-1.15,5.4-5.55,0-3.7-1.85-4.6-5.4-4.6h-4.35Z"/>
      <path class="cls-1" d="M236.5,20.7l8.65,14.8h-8.05l-8.3-14.25h-1.9v14.25h-7.05V.5h11.9c7.8,0,11.95,3.7,11.95,9.95,0,5.6-2.5,9-7.2,10.25Zm-9.6-14.25V15.3h4.85c3.3,0,4.9-1.05,4.9-4.65,0-2.5-1.6-4.2-4.9-4.2h-4.85Z"/>
      <path class="cls-1" d="M247.75,18c0-13.7,6.2-18,15.5-18s15.55,4.3,15.55,18-6.2,18-15.55,18-15.5-4.3-15.5-18Zm24,0c0-9.5-3.4-12.05-8.5-12.05s-8.45,2.55-8.45,12.05,3.4,12.05,8.45,12.05,8.5-2.55,8.5-12.05Z"/>
    </g>
  </g>
</svg>