<svg xmlns="http://www.w3.org/2000/svg" viewBox="0 0 170.3 59.9"><path d="M19.1691 0c4.0097 0 5.4417 2.864 6.301 5.7281.5727 1.1456 11.1697 30.359 11.4561 31.2182 0 .2864 0 .5728-.2864.8592-.2864 0-6.0145 2.2912-6.3009 2.2912-.2864 0-.5728 0-.8592-.2864 0-.2864-2.2912-6.5873-2.5776-7.4465H11.1498c-.2864.5728-2.5777 7.1601-2.5777 7.4465 0 .2864-.5728.5728-.8592.2864-.2864 0-5.7281-2.2912-6.301-2.2912-.2863 0-.5727-.5728-.2863-.8592C1.412 35.8007 12.009 7.4465 12.5818 5.728 13.7274 2.8641 15.1594 0 19.169 0M.5528 51.8394c-.2864 0-.5728.2864-.5728.5728v6.8737c0 .2864.2864.5728.5728.5728h37.2327c.2864 0 .5728-.2864.5728-.5728v-6.8737c0-.2864-.2864-.5728-.5728-.5728H.5528M19.169 9.4514L13.7274 25.49h10.597L19.1691 9.4514zm69.5965 26.0629c-.8592.2864-1.432.2864-2.0048.2864-1.1457 0-2.0049-.5729-2.0049-1.7185 0-1.432.8592-1.7184 2.5777-1.7184h1.1456v.8592c.2864 1.1456.2864 2.0048.2864 2.2913m4.5825 1.7184c-.8592-1.432-1.1456-2.2913-1.1456-4.0097v-3.7233c0-2.0048-.2864-2.5776-.8593-3.4368-.8592-1.1456-2.0048-1.432-4.0096-1.432-1.432 0-3.1505.2864-4.5825.5728l.5728 2.5776c.8592 0 2.0048-.2864 2.864-.2864 2.2913 0 2.5777.2864 2.5777 2.0048v.5729c-.5728 0-1.1456-.2865-1.7184-.2865-3.4369 0-5.4417 1.7185-5.4417 4.5825 0 2.5777 2.0048 4.0097 4.296 4.0097.8593 0 1.7185-.2864 2.5777-.5728l1.1456-.5728c.2864.5728 1.1456 1.1456 1.432 1.1456l2.2913-1.1456zm34.9414-1.7184c-.8592.2864-1.432.2864-2.0048.2864-1.1456 0-2.0048-.5729-2.0048-1.7185 0-1.432.8592-1.7184 2.5776-1.7184h1.1456v.8592c0 1.1456.2864 2.0048.2864 2.2913m4.5825 1.7184c-.8592-1.432-1.1456-2.2913-1.1456-4.0097v-3.7233c0-2.0048-.2864-2.5776-.8592-3.4368-.5728-1.1456-2.0049-1.432-4.0097-1.432-1.432 0-3.1505.2864-4.5825.5728l.5728 2.5776c.8592 0 2.0049-.2864 2.864-.2864 2.2913 0 2.5777.2864 2.5777 2.0048v.5729c-.5728 0-1.1456-.2865-1.7184-.2865-3.4369 0-5.4417 1.7185-5.4417 4.5825 0 2.5777 2.0048 4.0097 4.5825 4.0097.8592 0 1.7184-.2864 2.5776-.5728l1.1457-.5728c.2864.5728 1.1456 1.1456 1.432 1.1456l2.0048-1.1456zm27.495 1.1456s-2.005-4.0097-2.2913-5.1553c-.5728-1.1456-1.1456-1.7184-2.0049-2.0048.8593 0 1.432-.5728 2.0049-2.0049.5728-1.432.8592-1.7184 1.1456-2.0048s.8592-.2864.8592-.2864l.2864-2.5777h-1.7184c-.8592 0-1.432.2865-2.0048.8593-.2865.2864-.5729.8592-.8593 1.432s-.5728 1.1456-.8592 2.0048c-.2864.5728-.5728 1.1456-1.432 1.1456h-.5728V18.9027h-3.4369V38.092h3.4369v-5.4417h.5728c1.1456 0 1.1456.2864 1.7184 1.432s1.7185 4.2961 1.7185 4.2961h3.4368zm-99.6691 0h4.0097l-6.301-18.9027c-.5728-.2864-1.432-.2864-2.2912-.2864s-1.1456 0-2.0048.2864l-6.5874 18.9027h4.0097s.5728-1.7184 1.1456-3.7233h6.8738c.5728 2.0049 1.1456 3.7233 1.1456 3.7233m-6.8737-6.8737s1.1456-3.7233 1.432-4.2961c.2864-1.432.8592-4.0097.8592-4.0097s.5728 2.5777 1.1456 4.0097c.2864.5728 1.1456 4.296 1.1456 4.296h-4.5824zm45.5384-2.0049c-1.1456 0-2.2912 1.1457-2.2912 2.2913 0 1.1456 1.1456 2.2912 2.2912 2.2912s2.2912-1.1456 2.2912-2.2912c0-1.432-1.1456-2.2913-2.2912-2.2913M69.5764 19.1892h-3.4368v19.1891h3.4368V19.1892zm70.4557 8.5921c2.0049 0 2.2913.5728 2.2913 2.0048v8.5922h3.4369v-8.8786c0-2.0048-.2865-2.5776-.8593-3.4368-.8592-1.1456-2.0048-1.432-4.5824-1.432-2.2913 0-4.0097.2864-5.7282.8592v12.8882h3.437v-10.597h2.0047m-61.577-8.8786c-2.2913 0-3.437.5729-4.0098 1.432-.5728.8593-.8592 1.4321-.8592 3.437V25.49h-1.7184v2.864h1.7184v10.0242h3.4369V28.3541h3.4368v-2.864H77.023v-1.432c0-1.7185.2864-2.0049 2.5776-2.0049h.8592l.5729-2.864c-.8593-.2865-1.7185-.2865-2.5777-.2865m28.0677.2865c1.1456 0 4.0097-.2865 5.7281-.2865h.8592c3.437 0 5.1553 2.2913 5.1553 5.1553 0 2.0049-.8592 3.1505-2.864 4.0097 2.5776.5728 3.7233 2.5777 3.7233 4.869 0 1.7183-.5729 3.1504-1.432 4.0096-1.1457 1.1456-2.8641 1.7184-5.1554 1.7184h-6.0145V19.1892zm5.7281 3.1504h-2.0048v4.5825h2.0048c.8592 0 1.432-.2864 2.0049-.5728.2864-.2864.5728-.8592.5728-1.7184 0-1.432-.8592-2.2913-2.5777-2.2913zm0 13.1747c2.0049 0 3.1505-.8593 3.1505-2.8641 0-.5728-.2864-1.432-.8592-1.7184-.5728-.5728-1.432-.8592-2.2913-.8592h-2.2912v5.728c.8592-.2863 1.432-.2863 2.2912-.2863" fill="#ff5050"/></svg>
