<svg version="1.1" id="Layer_1" xmlns="http://www.w3.org/2000/svg" x="0" y="0" viewBox="0 0 306.5 64" xml:space="preserve"><style>.st1{fill:#fff}</style><path d="M352.6 357.3c-4.3 17.1-21.6 27.6-38.8 23.3-17.1-4.3-27.6-21.6-23.3-38.8 4.3-17.1 21.6-27.6 38.8-23.3 17.2 4.2 27.6 21.6 23.3 38.8z" fill="#f7931a" transform="translate(-289.6074 -317.5047)"/><path class="st1" d="M335.7 345c.6-4.3-2.6-6.5-7-8.1l1.4-5.8-3.5-.9-1.4 5.6c-.9-.2-1.9-.4-2.8-.7l1.4-5.7-3.5-.9-1.4 5.8c-.8-.2-1.5-.3-2.2-.5l-4.8-1.2-.9 3.8s2.6.6 2.5.6c1.4.4 1.7 1.3 1.6 2l-1.6 6.6c.1 0 .2.1.4.1-.1 0-.2-.1-.4-.1l-2.3 9.2c-.2.4-.6 1.1-1.6.8 0 .1-2.6-.6-2.6-.6l-1.7 4 4.6 1.1c.9.2 1.7.4 2.5.6l-1.5 5.8 3.5.9 1.4-5.8c1 .3 1.9.5 2.8.7l-1.4 5.7 3.5.9 1.5-5.8c6 1.1 10.5.7 12.4-4.7 1.5-4.4-.1-6.9-3.2-8.5 2.1-.3 3.8-1.8 4.3-4.9zm-8 11.2c-1.1 4.4-8.4 2-10.8 1.4l1.9-7.7c2.4.6 10 1.8 8.9 6.3zm1.1-11.3c-1 4-7.1 2-9.1 1.5l1.7-7c2 .4 8.4 1.3 7.4 5.5zM383.4 336.9c2.6 0 4.8.5 6.7 1.4 1.9.9 3.5 2.2 4.7 3.7 1.2 1.6 2.2 3.4 2.8 5.5.6 2.1.9 4.4.9 6.8 0 3.7-.7 7.3-2.1 10.6-1.4 3.3-3.3 6.2-5.6 8.7-2.4 2.5-5.2 4.4-8.4 5.8-3.2 1.4-6.7 2.1-10.5 2.1h-2.6c-1.3 0-2.6-.1-4.2-.4-1.6-.2-3.2-.5-5-1-1.8-.4-3.4-1-5-1.8l14-58.9 12.5-1.9-5 20.9c1.1-.5 2.2-.9 3.2-1.1 1.2-.3 2.3-.4 3.6-.4zm-10.5 34.6c1.9 0 3.7-.5 5.3-1.4 1.7-.9 3.1-2.1 4.3-3.7 1.2-1.5 2.2-3.3 2.9-5.2s1.1-4 1.1-6.1c0-2.6-.4-4.6-1.3-6.1s-2.5-2.2-4.8-2.2c-.8 0-1.7.1-3 .4-1.2.3-2.3.8-3.3 1.7l-5.3 22.2c.3.1.6.1.9.2.2.1.5.1.8.1h1c.4 0 .8.1 1.4.1zM411.5 380.4h-12l10.1-42.6h12.1l-10.2 42.6zm5.8-47.8c-1.7 0-3.2-.5-4.5-1.5-1.4-1-2-2.5-2-4.6 0-1.1.2-2.2.7-3.2.5-1 1.1-1.9 1.8-2.6.8-.7 1.6-1.3 2.6-1.7 1-.4 2.1-.6 3.2-.6 1.7 0 3.2.5 4.5 1.5 1.3 1 2 2.5 2 4.6 0 1.1-.2 2.2-.7 3.2-.5 1-1.1 1.9-1.8 2.6-.8.7-1.6 1.3-2.6 1.7-1 .4-2.1.6-3.2.6zM432.2 327.2l12.6-1.9-3.1 12.6h13.4l-2.4 9.9h-13.4l-3.6 14.9c-.3 1.2-.5 2.4-.6 3.5-.1 1.1.1 2 .4 2.8.3.8.9 1.4 1.7 1.8.8.4 2 .7 3.6.7 1.3 0 2.6-.1 3.8-.4 1.2-.2 2.4-.6 3.7-1l.9 9.2c-1.6.6-3.4 1.1-5.3 1.5-1.9.4-4.1.6-6.7.6-3.7 0-6.6-.6-8.7-1.7-2.1-1.1-3.5-2.6-4.4-4.5-.9-1.9-1.2-4.1-1.1-6.6.1-2.5.5-5.1 1.1-7.9l8.1-33.5zM454.6 363.4c0-3.7.6-7.1 1.8-10.4 1.2-3.2 2.9-6.1 5.1-8.5 2.2-2.4 4.9-4.3 8.1-5.7 3.1-1.4 6.7-2.1 10.6-2.1 2.4 0 4.6.2 6.5.7 1.9.5 3.7 1.1 5.2 1.8l-4.1 9.4c-1.1-.4-2.2-.8-3.4-1.2-1.2-.4-2.6-.5-4.3-.5-4 0-7.2 1.4-9.5 4.1-2.3 2.8-3.5 6.5-3.5 11.1 0 2.8.6 5 1.8 6.7 1.2 1.7 3.4 2.5 6.6 2.5 1.6 0 3.1-.2 4.5-.5 1.5-.3 2.8-.7 3.9-1.2l.9 9.6c-1.5.6-3.2 1.1-5 1.6-1.8.4-4 .7-6.6.7-3.3 0-6.2-.5-8.5-1.5s-4.2-2.3-5.7-3.9c-1.5-1.7-2.6-3.6-3.3-5.8-.8-2.2-1.1-4.5-1.1-6.9zM507.8 381.5c-2.9 0-5.3-.4-7.5-1.3-2.1-.9-3.8-2.1-5.2-3.6-1.4-1.6-2.4-3.4-3.1-5.5-.7-2.1-1-4.5-1-7.1 0-3.2.5-6.5 1.6-9.7 1-3.2 2.6-6.2 4.7-8.7 2-2.6 4.6-4.7 7.5-6.4 3-1.6 6.4-2.5 10.2-2.5 2.8 0 5.3.4 7.4 1.3 2.1.9 3.9 2.1 5.3 3.6 1.4 1.6 2.4 3.4 3.1 5.5.7 2.1 1.1 4.5 1.1 7.1 0 3.2-.5 6.5-1.5 9.7-1 3.2-2.5 6.1-4.5 8.7-2 2.6-4.5 4.7-7.5 6.4-3.2 1.7-6.6 2.5-10.6 2.5zm6-34.7c-1.8 0-3.3.5-4.7 1.5-1.4 1-2.5 2.3-3.4 3.9-.9 1.6-1.6 3.3-2.1 5.1-.5 1.9-.7 3.6-.7 5.3 0 2.7.4 4.8 1.3 6.3s2.4 2.3 4.7 2.3c1.8 0 3.3-.5 4.7-1.5 1.3-1 2.5-2.3 3.4-3.9.9-1.6 1.6-3.3 2.1-5.1.5-1.9.7-3.6.7-5.3 0-2.7-.4-4.8-1.3-6.3s-2.4-2.3-4.7-2.3zM544.8 380.4h-12l10.1-42.6H555l-10.2 42.6zm5.9-47.8c-1.7 0-3.2-.5-4.5-1.5-1.3-1-2-2.5-2-4.6 0-1.1.2-2.2.7-3.2.5-1 1.1-1.9 1.8-2.6.8-.7 1.6-1.3 2.6-1.7 1-.4 2.1-.6 3.2-.6 1.7 0 3.2.5 4.5 1.5 1.3 1 2 2.5 2 4.6 0 1.1-.2 2.2-.7 3.2s-1.1 1.9-1.8 2.6c-.8.7-1.6 1.3-2.6 1.7-1 .4-2.1.6-3.2.6zM563.7 339.7c.9-.3 1.9-.6 3-.9 1.1-.3 2.3-.7 3.7-1 1.4-.3 2.9-.5 4.6-.7 1.7-.2 3.6-.3 5.8-.3 6.3 0 10.7 1.8 13.1 5.5 2.4 3.7 2.8 8.7 1.3 15.1l-5.5 23h-12.1l5.3-22.5c.3-1.4.6-2.8.8-4.1.2-1.3.2-2.5 0-3.5s-.7-1.8-1.5-2.4c-.8-.6-2-.9-3.6-.9s-3.2.2-4.8.5l-7.9 33h-12.1l9.9-40.8z" transform="translate(-289.6074 -317.5047)"/></svg>
