<svg fill="none" xmlns="http://www.w3.org/2000/svg" viewBox="0 0 90 47"><g clip-path="url(#clip0)"><path d="M13.3828 11.0071c0-3.4997 1.6053-6.6043 4.0964-8.6222C15.6386.889 13.3136 0 10.7948 0 4.83 0 0 4.925 0 11.0071s4.83 11.007 10.7948 11.007c2.5326 0 4.8576-.889 6.6983-2.3707-2.505-2.0321-4.1103-5.1508-4.1103-8.6363z" fill="#E30D17"/><path d="M13.3828 11.0072c0 3.4997 1.6054 6.6042 4.0965 8.6222 2.4911-2.018 4.0965-5.1225 4.0965-8.6222S19.9704 4.403 17.4793 2.385c-2.4911 2.0039-4.0965 5.1225-4.0965 8.6222z" fill="#EB610A"/><path d="M34.2388 16.9481v-.3246h-.1245v-.0847h.3459v.0847h-.1384v.3246h-.083zm.6643 0v-.2823l-.0969.2399h-.0968l-.0969-.2399v.2823h-.0969v-.4093h.1384l.0969.2681.0969-.2681h.1383v.4093h-.083zM24.1778 0c-2.5326 0-4.8577.889-6.6983 2.3708 2.4911 2.018 4.0965 5.1225 4.0965 8.6221 0 3.4997-1.6054 6.6043-4.0965 8.6222 1.8406 1.4818 4.1657 2.3708 6.6983 2.3708 5.9648 0 10.7948-4.925 10.7948-11.0071C34.9726 4.8968 30.1288 0 24.1778 0z" fill="#F69F00"/></g><g clip-path="url(#clip1)"><path d="M62.2341 17.7826H58.25l2.5054-13.5297h3.9841l-2.5054 13.5297zM54.8826 4.253L51.0629 13.55l-.4518-1.9896-1.3554-6.1137s-.1643-1.23-1.8894-1.23h-6.2842L41 4.47s1.9304.3618 4.1894 1.5556l3.4912 11.7571h4.1484L59.1953 4.253h-4.3127zM86.3028 17.7826h3.6554L86.7546 4.2529h-3.2037c-1.4787 0-1.8483 1.013-1.8483 1.013l-5.9145 12.5167h4.1484l.8214-2.0258h5.0931l.4518 2.0258zm-4.3948-4.8113l2.0947-5.0646 1.1911 5.0646H81.908zM76.0764 7.509l.575-2.894s-1.7661-.5789-3.6144-.5789c-1.9715 0-6.6949.7597-6.6949 4.4858 0 3.5091 5.5449 3.5452 5.5449 5.3902 0 1.845-4.9698 1.5194-6.6128.3618l-.575 3.0387s1.7662.7597 4.518.7597c2.7108 0 6.8592-1.23 6.8592-4.6305 0-3.509-5.5859-3.8346-5.5859-5.3902 0-1.5917 3.9019-1.3746 5.5859-.5426z" fill="#fff"/><path d="M50.6111 11.5243l-1.3554-6.0775s-.1643-1.23-1.8894-1.23h-6.2842L41 4.47s3.0394.5427 5.9145 2.6409c2.793 1.9534 3.6966 4.4134 3.6966 4.4134z" fill="#F7A823"/></g><path fill-rule="evenodd" clip-rule="evenodd" d="M21.6915 30.0609c.4796-.0029 1.9048-.1362 2.5085 1.9793.4067 1.425 1.0545 3.7592 1.9434 7.0026h.362c.9533-3.4195 1.6082-5.7537 1.9646-7.0026.61-2.1375 2.135-1.9792 2.745-1.9792h4.7063v15.2h-4.7967v-8.9576h-.3217l-2.674 8.9576H24.52l-2.674-8.9643h-.3217v8.9643h-4.7968v-15.2l4.964-.0001zm21.1179.0001v8.9643h.3827l3.2526-7.3713c.6314-1.4669 1.9771-1.593 1.9771-1.593h4.6419v15.2h-4.897v-8.9643h-.3826l-3.1889 7.3713c-.6314 1.4602-2.0409 1.593-2.0409 1.593h-4.6418v-15.2h4.8969zm27.1804 7.2231c-.6831 2.0097-2.8282 3.449-5.2032 3.449h-5.1354v4.5279h-4.6567v-7.9769h14.9953z" fill="#67C09E"/><path fill-rule="evenodd" clip-rule="evenodd" d="M65.0109 30.061H54.75c.2442 3.3841 3.0511 6.281 5.9568 6.281h9.6063c.5543-2.8125-1.3541-6.281-5.3022-6.281z" fill="url(#paint0_linear)"/><defs><clipPath id="clip0"><path fill="#fff" d="M0 0h35v22H0z"/></clipPath><clipPath id="clip1"><path fill="#fff" transform="translate(41 4)" d="M0 0h49v14H0z"/></clipPath><linearGradient id="paint0_linear" x1="70.4073" y1="34.012" x2="54.75" y2="34.012" gradientUnits="userSpaceOnUse"><stop stop-color="#1F5CD7"/><stop offset="1" stop-color="#02AEFF"/></linearGradient></defs></svg>
