<svg xmlns="http://www.w3.org/2000/svg" xmlns:xlink="http://www.w3.org/1999/xlink" width="143" height="34"><defs><path id="a" d="M.076.054h38.899v26.231H.076z"/></defs><g fill="none" fill-rule="evenodd"><path fill="#7DBD53" d="M24.573.273C10.99.273 0 6.71 0 14.7c0 3.384 1.988 6.492 5.356 8.989-1.656-2.053-2.595-4.329-2.595-6.77 0-8.268 10.768-14.983 24.02-14.983 8.56 0 16.07 2.775 20.322 6.992-3.81-5.105-12.48-8.656-22.53-8.656"/><path fill="#FFFFFE" d="M13.638 12.946c.707-.587 1.584-.88 2.632-.88 1.024 0 1.895.298 2.614.896a3.198 3.198 0 011.189 2.293h-7.788c.195-.952.646-1.722 1.353-2.31zm8.774 5.833c.999 0 1.803-.211 2.413-.632.707-.465 1.06-1.14 1.06-2.027 0-1.64-.536-3.158-1.608-4.554-1.073-1.395-2.45-2.448-4.132-3.157-1.17-.487-2.473-.731-3.911-.731-2.9 0-5.283.942-7.148 2.825-1.864 1.884-2.796 4.154-2.796 6.813 0 2.681.974 4.935 2.925 6.763 1.95 1.828 4.387 2.742 7.311 2.742 1.56 0 3.058-.221 4.497-.664 1.706-.51 2.949-1.252 3.729-2.227.438-.532.658-1.064.658-1.595 0-1.396-.78-2.094-2.34-2.094-.341 0-1.219.294-2.632.88-1.414.588-2.62.881-3.62.881-1.194 0-2.205-.276-3.033-.83-.83-.554-1.305-1.352-1.426-2.393h10.053zm6.763 5.25c1.803 1.84 4.192 2.759 7.165 2.759 1.78 0 3.266-.266 4.46-.797 1.658-.754 2.486-1.673 2.486-2.759a2.32 2.32 0 00-.64-1.645c-.426-.454-.98-.681-1.663-.681-.463 0-1.048.132-1.755.398-.707.266-1.475.4-2.303.4-1.414 0-2.51-.444-3.29-1.33-.683-.798-1.024-1.861-1.024-3.19 0-1.264.33-2.316.987-3.158.731-.93 1.767-1.396 3.108-1.396.828 0 1.614.139 2.358.415.743.278 1.346.416 1.81.416.706 0 1.291-.221 1.754-.665.463-.443.695-.985.695-1.628 0-1.24-.804-2.171-2.413-2.792-1.194-.443-2.596-.665-4.204-.665-3.071 0-5.533.893-7.385 2.676-1.852 1.783-2.778 4.082-2.778 6.896 0 2.725.877 4.974 2.632 6.746m21.313-9.87c.707-.952 1.706-1.43 2.998-1.43 1.267 0 2.254.489 2.96 1.463.635.842.952 1.861.952 3.058 0 1.24-.306 2.271-.914 3.09-.707.976-1.707 1.463-2.998 1.463-1.268 0-2.255-.487-2.961-1.463-.634-.841-.951-1.872-.951-3.09 0-1.219.304-2.249.914-3.091zm-4.277 9.904c1.9 1.883 4.326 2.825 7.275 2.825 2.973 0 5.398-.931 7.275-2.792 1.803-1.816 2.705-4.088 2.705-6.813 0-2.747-.914-5.04-2.742-6.88-1.827-1.839-4.24-2.758-7.238-2.758-2.95 0-5.356.925-7.22 2.775-1.865 1.85-2.797 4.138-2.797 6.863 0 2.703.914 4.964 2.742 6.78z"/><path fill="#7DBD53" d="M71.765 22.716V18.58h4.094c2.876 0 5.142-.72 6.8-2.16 1.657-1.44 2.486-3.467 2.486-6.082 0-2.636-.914-4.686-2.742-6.149-1.73-1.396-4.07-2.093-7.019-2.093H69.9c-1.584 0-2.68.287-3.29.863-.61.575-.914 1.582-.914 3.02v16.728c0 2.61 1.011 3.916 3.035 3.916 2.022 0 3.034-1.302 3.034-3.906zm0-15.536h2.632c2.779 0 4.168 1.052 4.168 3.157 0 2.15-1.39 3.224-4.168 3.224h-2.632V7.18z"/><g transform="translate(85.405 7.69)"><mask id="b" fill="#fff"><use xlink:href="#a"/></mask><path fill="#7DBD53" d="M16.82 18.932c1.95 0 2.925-1.31 2.925-3.93V4.183c0-2.597-.975-3.895-2.925-3.895-1.194 0-2.133.565-2.815 1.695C12.811.697 11.227.054 9.253.054c-2.706 0-4.936.997-6.69 2.991C.905 4.907.076 7.089.076 9.592c0 2.482.792 4.642 2.377 6.481 1.73 1.994 3.924 2.991 6.58 2.991 2.096 0 3.753-.675 4.972-2.027.585 1.263 1.523 1.895 2.815 1.895zM7.128 6.568c.703-.908 1.661-1.362 2.874-1.362 1.237 0 2.195.454 2.874 1.362.582.798.873 1.784.873 2.958 0 1.175-.291 2.172-.873 2.991-.68.93-1.637 1.396-2.874 1.396s-2.208-.465-2.911-1.396c-.606-.82-.91-1.816-.91-2.99 0-1.153.316-2.139.947-2.959zm26.326-4.154l-3.619 8.574-3.364-8.109c-.365-.908-.694-1.517-.987-1.828-.488-.51-1.157-.764-2.01-.764-.83 0-1.518.255-2.066.764a2.48 2.48 0 00-.823 1.894c0 .531.11 1.03.33 1.495l5.956 12.658-2.434 4.815c-.326.683-.488 1.29-.488 1.818 0 .794.268 1.422.804 1.885.536.462 1.243.694 2.12.694 1.048 0 1.914-.72 2.596-2.16L38.5 4.706c.316-.686.476-1.307.476-1.861 0-1.706-.976-2.56-2.925-2.56-1.121 0-1.987.71-2.596 2.128" mask="url(#b)"/></g><path fill="#7DBD53" d="M138.904 21.37h-5.837l7.846-9.167c.8-.932 1.2-1.72 1.2-2.362 0-.71-.305-1.16-.914-1.348-.61-.188-1.548-.283-2.815-.283h-9.469c-2.51 0-3.765.809-3.765 2.426 0 1.64 1.243 2.46 3.729 2.46h5.081l-8.115 9.538c-.585.687-.878 1.374-.878 2.06 0 1.108 1.036 1.662 3.108 1.662h10.784c2.486 0 3.73-.82 3.73-2.46 0-1.683-1.229-2.525-3.685-2.525"/></g></svg>
