<svg xmlns="http://www.w3.org/2000/svg" viewBox="0 0 295.7 108.1"><path d="M196.5 22.8v50.5c0 .8-.6 1.4-1.4 1.4h-10.3c-.8 0-1.4-.6-1.4-1.4V22.8c0-.8.6-1.4 1.4-1.4h10.3c.8 0 1.4.6 1.4 1.4zm80.4-1.4h-11.5c-.6 0-1.1.4-1.3 1L255 52.3l-10-29.9c-.2-.6-.7-.9-1.3-.9h-8.1c-.6 0-1.1.4-1.3.9l-10 29.9-9.3-29.9c-.2-.6-.7-1-1.3-1h-11.5c-.4 0-.9.2-1.1.6-.3.4-.3.8-.2 1.2l17 50.6c.2.6.7.9 1.3.9h9.2c.6 0 1.1-.4 1.3-.9l9.9-29.5 9.9 29.5c.2.6.7.9 1.3.9h9.2c.6 0 1.1-.4 1.3-.9l17-50.6c.1-.4.1-.9-.2-1.2-.3-.4-.7-.6-1.2-.6zm17.4 0H284c-.8 0-1.4.6-1.4 1.4v50.5c0 .8.6 1.4 1.4 1.4h10.3c.8 0 1.4-.6 1.4-1.4V22.8c0-.8-.7-1.4-1.4-1.4zM177.5 73c.6.7.1 1.7-.8 1.7H164c-.5 0-1-.2-1.3-.6l-2.1-2.6c-4.4 2.8-9.6 4.5-15.1 4.5-15.4 0-27.9-12.5-27.9-27.9s12.5-27.9 27.9-27.9c15.4 0 27.9 12.5 27.9 27.9 0 5.5-1.6 10.7-4.4 15.1l8.5 9.8zm-25.1-11.3l-5.5-6.7c-.6-.7-.1-1.8.8-1.8h11.6c.6-1.6.9-3.4.9-5.2 0-8.3-6.2-15.5-14.7-15.5s-14.7 7.2-14.7 15.5 6.2 15.4 14.7 15.4c2.5.1 4.8-.6 6.9-1.7zm-66.6 11c.3 2.1-.4 3-1 3-.7 0-1.6-.9-2.7-2.5-1.1-1.7-1.5-3.6-.9-4.5.3-.6 1.1-.9 2-.6 1.7.6 2.4 3.3 2.6 4.6zm-9.9 4.6c2.1 1.8 2.8 4 1.7 5.5-.6.8-1.6 1.3-2.9 1.3-1.2 0-2.4-.4-3.3-1.2-1.9-1.7-2.5-4.5-1.2-6 .5-.6 1.3-.9 2.3-.9 1.1-.1 2.3.4 3.4 1.3zm-3.6 17.4c9.2 0 19.2 3.2 30.3 13 1.1 1 2.6-.2 1.6-1.5-10.9-13.7-20.9-16.3-30.9-18.5-12.3-2.7-18.6-9.6-23-17.2-.9-1.5-1.3-1.2-1.3.7-.1 2.4.1 5.5.6 8.6h-1.5c-17.5 0-31.8-14.2-31.8-31.8s14.2-31.8 31.8-31.8c17.5 0 31.8 14.2 31.8 31.8 0 1.2-.1 2.5-.2 3.7-2.3-.4-6.9-.5-10.1-.2-1.2.1-1 .7-.1.8 10.5 1.9 17.7 8.4 19.4 20.2 0 .3.4.4.5.1 4.3-7.2 6.8-15.6 6.8-24.7C96.1 21.5 74.6 0 48.1 0 21.5 0 0 21.5 0 48.1s21.5 48.1 48.1 48.1c7-.1 14-1.5 24.2-1.5z" fill="#ff8c00"/></svg>
