<svg version="1.1" id="Layer_1" xmlns="http://www.w3.org/2000/svg" x="0" y="0" viewBox="0 0 896 250.2" xml:space="preserve"><style>.st0{fill:#5dc95f}.st1{fill:#f5941c}</style><path class="st0" d="M323 62.3c0-27.8 16.2-45.9 45.1-45.9 13 0 20.7 2.5 26.2 5.1l-3.9 10.2c-7-2.2-12.1-3.9-22.1-3.9-17.7-.1-31.6 9.6-31.6 33.2 0 24.1 14.4 34.6 34 34.6 8.4 0 14.7-1.2 20.6-3.1l3.1 10.5c-6.6 2.5-13.6 4.4-25.8 4.4-30.1 0-45.6-18-45.6-45.1M403.1 67.8c0-14 2.6-35.9 10.5-43.3 6.9-6.5 25.2-10.9 46.6-14.9l2.1 11.7c-19 3.2-35.8 6.2-39.9 10.2-3.6 3.5-5.2 11.5-6 17.5 5.7-3.1 13.6-6.1 23.2-6.1 16.4 0 26.7 8.1 26.7 28.8 0 24.3-14.1 35.2-33 35.2-18.7.1-30.2-11.6-30.2-39.1m50.1 4.5c0-10.9-4.6-19.2-17-19.2-7.9 0-14.1 2.7-20.2 5.9-.1 2.2-.2 5.5-.2 7.7 0 20.3 6.1 29.8 18.6 29.8 14.6 0 18.8-12.4 18.8-24.2M477 73.1c0-27 13.7-37.1 30.8-37.1 19.1 0 27.1 12.1 27.1 34.3v4.6h-44.8c.1 18 10.4 21.6 22.3 21.6 6.5 0 12-1 18.7-3l2.2 10.1c-6 2.2-14.1 3.7-23 3.7-20.2.1-33.3-7.9-33.3-34.2m44.4-7.3c0-12.1-4.4-20-14.4-20-9 0-15.7 6.6-16.6 20h31zM548 37.7h13v5.4c5.9-4.1 11.2-7 19.6-7 16.1 0 27.1 11.2 27.1 33.9 0 27.8-16.5 37.2-34.8 37.2-4.2 0-8.9-.6-11.9-1v27.1h-13V37.7zm46.5 33c0-12.4-4.4-23.5-17.5-23.5-7.1 0-12.5 3.2-16 5.1v43.2c1.6.3 7 1.2 11.6 1.2 15.6.1 21.9-10.8 21.9-26M619 67.8c0-14 2.6-35.9 10.5-43.3 6.9-6.5 25.2-10.9 46.6-14.9l2.1 11.7c-19 3.2-35.8 6.2-39.9 10.2-3.6 3.5-5.2 11.5-6 17.5 5.7-3.1 13.6-6.1 23.2-6.1 16.4 0 26.7 8.1 26.7 28.8 0 24.3-14.1 35.2-33 35.2-18.8.1-30.2-11.6-30.2-39.1m50 4.5c0-10.9-4.6-19.2-17-19.2-7.9 0-14.1 2.7-20.2 5.9-.1 2.2-.2 5.5-.2 7.7 0 20.3 6.1 29.8 18.6 29.8 14.7 0 18.8-12.4 18.8-24.2M690.5 87.5c0-17.2 15.2-20.7 27.1-20.8l14.9-.3V59c0-9.4-4.7-11.9-14.7-11.9-7.2 0-13.2 1.2-19.1 3.2l-2.7-9.9c6.4-2.6 14-4.6 24-4.6 16.4 0 25.3 5.7 25.3 19.6V91c0 4.2 3.6 5.1 7.1 5.2l-1 10c-.9.1-1.7.3-2.6.3-7 0-13.9-2.1-15.1-8.2-4.2 3.2-11.2 8.6-22.1 8.6-12.7.1-21.1-6.7-21.1-19.4m42 3V74.8l-14.5.6c-9.4.3-14.7 4.2-14.7 11.2 0 6.9 5 10 11.6 10 6.1.1 12.7-2.9 17.6-6.1M763.4 37.7h13.1v28.9h32.1V37.7h13.1v68.2h-13.1v-29h-32.1v29h-13.1zM837.8 37.7h13.1v68.2h-13.1V37.7zm33 56.5L851.4 71l27.1-33.2h14.7L865.5 70 879 85c6 6.9 11.5 10.9 17 12.4l-2.2 9.7c-6.4-.5-14-2-23-12.9"/><g><path class="st0" d="M260.4 120c0 71.9-58.3 130.2-130.2 130.2C58.3 250.2 0 191.9 0 120c0-2.9.1-5.8.3-8.7l78.8 45.3 167-96.1c9.2 17.9 14.3 38.1 14.3 59.5m-181.3 3.9L5.7 81.7c-1.4 4.7-2.6 9.5-3.5 14.4l76.9 44.2L239 48.4c-2.6-4-5.5-7.8-8.5-11.5l-151.4 87zm141.4-97.7c-3.6-3.5-7.4-6.8-11.4-9.8l-130 74.7-62-35.7c-2.3 4.1-4.5 8.3-6.4 12.7l68.4 39.3 141.4-81.2zM79.1 74.8L195.9 7.6c-4.9-2.9-10-5.4-15.2-7.6L79.1 58.4l-45.2-26c-3.2 3.5-6.3 7.3-9.1 11.2l54.3 31.2z"/></g><g><path class="st1" d="M408 187.8c0 14.1-3.6 25.2-10.7 33.3-7.1 8.1-17.1 12.1-30 12.1-13 0-23-4-30.1-11.9-7.1-7.9-10.7-19.2-10.7-33.6 0-14.4 3.5-25.5 10.6-33.4s17.2-11.9 30.3-11.9c12.8 0 22.8 4 29.9 12 7.2 8.1 10.7 19.2 10.7 33.4zm-69.7 0c0 11.7 2.5 20.6 7.4 26.7 4.9 6.1 12.2 9.2 21.7 9.2s16.6-3 21.5-9.1c4.9-6 7.4-15 7.4-26.8s-2.4-20.7-7.3-26.6c-4.9-6-12-9-21.5-9-9.6 0-16.8 3-21.8 9.1-5 6-7.4 14.9-7.4 26.5zM436.9 165.8v27.6h36v-27.6h10.9V232h-10.9v-29.5h-36V232H426v-66.3h10.9zM555.2 232h-11v-57.2h-19.5c-1.1 14.5-2.6 25.9-4.6 34.1-1.9 8.3-4.4 14.3-7.5 18.2-3.1 3.8-7 5.8-11.8 5.8-2.6 0-4.5-.3-5.7-.8V224c.8.3 2 .5 3.4.5 4.4 0 8-4.7 10.6-14 2.6-9.3 4.7-24.2 6.2-44.6h40V232zM617.2 232l-2.1-9.4h-.5c-3.3 4.1-6.6 7-9.9 8.4-3.3 1.5-7.4 2.2-12.4 2.2-6.5 0-11.6-1.7-15.3-5.1-3.7-3.4-5.6-8.2-5.6-14.5 0-13.4 10.6-20.5 31.8-21.1l11.2-.4v-3.9c0-5-1.1-8.7-3.3-11.1-2.2-2.4-5.7-3.6-10.4-3.6-3.5 0-6.8.5-9.9 1.6-3.1 1-6 2.2-8.8 3.5l-3.3-8.1c3.3-1.8 7-3.2 10.9-4.2 3.9-1 7.8-1.5 11.7-1.5 8 0 14 1.8 17.9 5.3 3.9 3.5 5.9 9.2 5.9 16.9v45h-7.9zm-22.4-7.5c6.1 0 10.9-1.6 14.3-4.9 3.5-3.3 5.2-7.9 5.2-14v-6l-9.8.4c-7.6.3-13.1 1.5-16.6 3.6-3.5 2.1-5.2 5.5-5.2 10.1 0 3.5 1.1 6.1 3.2 8s5 2.8 8.9 2.8zM655.8 165.8v40.4l-.5 11.7-.2 3.4 35.5-55.5h13.3V232h-10.1v-39l.2-8.4.3-8L659 232h-13.5v-66.3h10.3zm18.8-8.7c-7.7 0-13.3-1.5-16.9-4.4-3.5-2.9-5.5-7.7-5.9-14.4h10.1c.4 4.2 1.5 7.1 3.3 8.8 1.8 1.7 5 2.5 9.6 2.5 4.1 0 7.2-.9 9.2-2.7 2-1.8 3.2-4.6 3.7-8.6H698c-.6 6.5-2.8 11.3-6.6 14.3-3.9 3-9.4 4.5-16.8 4.5zM735.9 165.8v27.6h36v-27.6h10.9V232h-10.9v-29.5h-36V232H725v-66.3h10.9z"/></g></svg>
