<svg fill="none" xmlns="http://www.w3.org/2000/svg" viewBox="0 0 109 25"><g opacity=".8"><path d="M14.721 12.16a12.24 12.24 0 014.506-9.525A11.589 11.589 0 0011.874 0C5.313 0 0 5.44 0 12.16c0 6.718 5.313 12.159 11.874 12.159 2.786 0 5.344-.982 7.368-2.619a12.284 12.284 0 01-4.52-9.54z" fill="#E30D17"/><path d="M14.721 12.16a12.24 12.24 0 004.506 9.525 12.24 12.24 0 004.506-9.525 12.24 12.24 0 00-4.506-9.525c-2.74 2.213-4.506 5.659-4.506 9.525z" fill="#EB610A"/><path d="M37.663 18.723v-.359h-.137v-.094h.38v.094h-.152v.359h-.091zm.73 0v-.312l-.106.265h-.107l-.106-.265v.312h-.107v-.453h.152l.107.297.107-.297h.152v.453h-.092zM26.596 0c-2.786 0-5.344.982-7.369 2.619a12.24 12.24 0 014.507 9.525 12.24 12.24 0 01-4.507 9.525 11.675 11.675 0 007.369 2.619c6.56 0 11.874-5.44 11.874-12.16C38.47 5.41 33.142 0 26.596 0z" fill="#F69F00"/><path d="M73.414 20.872h-5.106l3.21-17.414h5.107l-3.211 17.414zM63.992 3.458l-4.895 11.966-.58-2.56-1.736-7.87s-.21-1.583-2.422-1.583h-8.054l-.105.326s2.474.466 5.37 2.002l4.474 15.133h5.316l8.16-17.414h-5.528zm40.269 17.414h4.685L104.84 3.458h-4.106c-1.895 0-2.369 1.303-2.369 1.303l-7.58 16.11h5.317l1.053-2.607h6.527l.579 2.608zm-5.632-6.193l2.684-6.518 1.527 6.518h-4.211zm-7.474-7.03l.737-3.725s-2.264-.745-4.633-.745c-2.526 0-8.58.978-8.58 5.773 0 4.517 7.106 4.563 7.106 6.938s-6.369 1.956-8.475.466l-.737 3.91s2.264.979 5.79.979c3.475 0 8.792-1.583 8.792-5.96 0-4.517-7.16-4.936-7.16-6.938 0-2.049 5.001-1.77 7.16-.698z" fill="#fff"/><path d="M58.518 12.817L56.78 4.994s-.21-1.583-2.422-1.583h-8.054l-.105.326s3.895.699 7.58 3.4c3.58 2.514 4.738 5.68 4.738 5.68z" fill="#F7A823"/></g></svg>
