<svg xmlns="http://www.w3.org/2000/svg" viewBox="0 0 199.125 23.281"><path d="M9.437 23.292c6.656 0 9.919-3.328 9.919-7.231 0-8.255-12.7-5.7-12.7-9.119 0-1.12.96-2.016 3.616-2.016a13.235 13.235 0 016.207 1.728l1.952-4.7A16.774 16.774 0 0010.304.002C3.649.002.385 3.266.385 7.265c0 8.319 12.735 5.728 12.735 9.279 0 1.088-1.024 1.824-3.648 1.824a14.124 14.124 0 01-7.391-2.208l-2.08 4.672a17.641 17.641 0 009.436 2.46zm27.867-.448h7.36l-9.627-12.479L44.184.444h-6.976l-8.671 9.313V.444h-6.272v22.4h6.272v-5.6l2.368-2.528zm9.025 0h6.336V.444h-6.336v22.4zM72.28.444v11.937L62.392.444h-5.215v22.4h6.207V10.909l9.888 11.935h5.215V.444H72.28zm18.557 22.848c6.656 0 9.92-3.328 9.92-7.231 0-8.255-12.7-5.7-12.7-9.119 0-1.12.96-2.016 3.616-2.016a13.236 13.236 0 016.208 1.728l1.952-4.7A16.777 16.777 0 0091.705.002c-6.655 0-9.919 3.264-9.919 7.263 0 8.319 12.735 5.728 12.735 9.279 0 1.088-1.024 1.824-3.648 1.824a14.123 14.123 0 01-7.391-2.208l-2.08 4.672a17.642 17.642 0 009.435 2.46zm30.05-12.127a5.289 5.289 0 003.008-4.864c0-3.456-2.88-5.856-8.767-5.856h-11.456v22.399h12.1c6.015 0 9.215-2.272 9.215-6.144a5.656 5.656 0 00-4.1-5.535zm-6.591-6.143c2.112 0 3.2.736 3.2 2.144 0 1.44-1.087 2.176-3.2 2.176h-4.352v-4.32h4.352zm.96 13.247h-5.312v-4.544h5.312c2.175 0 3.327.736 3.327 2.272s-1.152 2.271-3.327 2.271zm29.791 4.575h6.59l-9.92-22.4h-6.239l-9.885 22.4h6.463l1.76-4.352h9.471zm-9.375-9.023l2.88-7.168 2.879 7.168h-5.759zm28.608 9.471a11.848 11.848 0 009.631-4.224l-4.032-3.648a6.621 6.621 0 01-5.279 2.624 6.006 6.006 0 01-6.24-6.4 6.006 6.006 0 016.24-6.4 6.621 6.621 0 015.279 2.624l4.032-3.648a11.848 11.848 0 00-9.631-4.224c-7.1 0-12.32 4.832-12.32 11.647s5.216 11.649 12.32 11.649zm27.487-.448h7.359l-9.631-12.479 9.152-9.921h-6.976L183 9.755V.444h-6.272v22.4H183v-5.6l2.367-2.528z" fill="#6f86df" fill-rule="evenodd"/></svg>
