<svg width="140" height="39" xmlns="http://www.w3.org/2000/svg"><g fill-rule="nonzero" fill="none"><circle fill="#26A17B" cx="19.155" cy="19.225" r="19.013"/><path d="M21.182 20.98v-.004c-.132.01-.81.05-2.32.05-1.208 0-2.054-.034-2.354-.05v.004c-4.643-.205-8.106-1.012-8.106-1.981 0-.966 3.466-1.776 8.106-1.981v3.158c.303.021 1.174.073 2.375.073 1.443 0 2.164-.061 2.299-.073V17.02c4.634.208 8.088 1.015 8.088 1.98 0 .967-3.457 1.774-8.088 1.982m0-4.29V13.87h6.465V9.562h-17.6v4.307h6.464v2.825c-5.254.241-9.204 1.28-9.204 2.528 0 1.247 3.953 2.286 9.204 2.53v9.055h4.674v-9.054c5.245-.242 9.189-1.28 9.189-2.528 0-1.244-3.944-2.287-9.19-2.528M54.319 10.74v4.566h4.438v3.427h-4.469v6.948c0 1.534.847 2.283 2.088 2.283.62 0 1.339-.195 1.926-.489l1.11 3.393c-1.14.456-2.088.651-3.296.685-3.49.131-5.774-1.859-5.774-5.872v-6.948H47.34v-3.427h3.002v-4.142l3.977-.425zm76.52 4.352l.293 1.859c1.241-1.99 2.904-2.284 4.537-2.284 1.662 0 3.261.651 4.141 1.532l-1.794 3.457c-.816-.685-1.565-1.045-2.87-1.045-2.088 0-4.014 1.11-4.014 4.077v8.483h-3.98V15.086l3.687.006zm-9.754 6.166c-.26-2.088-1.892-3.134-4.176-3.134-2.152 0-3.916 1.046-4.502 3.134h8.678zm-8.743 3.295c.26 1.99 1.99 3.427 4.796 3.427 1.468 0 3.393-.557 4.307-1.501l2.544 2.512c-1.697 1.761-4.47 2.61-6.918 2.61-5.545 0-8.843-3.426-8.843-8.58 0-4.893 3.329-8.418 8.55-8.418 5.383 0 8.745 3.329 8.125 9.95h-12.56zM94.79 8.337v8.938c1.437-1.859 3.198-2.415 5.026-2.415 4.567 0 6.59 3.1 6.59 7.831v8.483h-3.98v-8.45c0-2.937-1.534-4.175-3.656-4.175-2.35 0-3.98 1.99-3.98 4.405v8.223h-3.98V8.34l3.98-.003zm-10.57 2.219v4.567h4.439v3.426h-4.47v6.948c0 1.535.85 2.284 2.088 2.284.62 0 1.34-.196 1.926-.49l1.11 3.394c-1.14.455-2.088.65-3.296.684-3.49.132-5.774-1.861-5.774-5.872V18.55h-3.002v-3.426h3.002V10.98l3.977-.425zM73.225 21.258c-.26-2.088-1.892-3.134-4.176-3.134-2.152 0-3.915 1.046-4.502 3.134h8.678zm-8.742 3.295c.26 1.99 1.99 3.427 4.796 3.427 1.467 0 3.393-.557 4.307-1.501l2.543 2.512c-1.697 1.761-4.47 2.61-6.918 2.61-5.548 0-8.843-3.426-8.843-8.58 0-4.893 3.329-8.418 8.547-8.418 5.383 0 8.742 3.329 8.125 9.95H64.483z" fill="#FFF"/></g></svg>
