<svg xmlns="http://www.w3.org/2000/svg" viewBox="0 0 147 44"><g fill-rule="nonzero" fill="none"><path d="m126.2144 9.116 17.3812 19.326V10.6718h2.4552v24.2365L128.6453 15.558v17.7702h-2.431V9.116Zm-38.4332 1.5558c3.8166 0 6.9039 3.1116 6.9039 6.9525 0 2.99-1.9448 5.6884-4.7403 6.6122l4.8618 9.116h-2.8199l-4.643-8.7757h-5.6641v8.7757h-2.431v-11.231h8.6055c2.4067-.0243 4.3757-2.042 4.3757-4.4972 0-2.4795-1.9933-4.4972-4.4243-4.4972H77.2552v20.201h-2.4309V10.6719Zm42.8575 10.3558 2.4795 2.7227v9.5779h-2.4795V21.0276Zm-20.347-10.3558c6.2475 0 11.3282 5.0807 11.3282 11.3282 0 6.2475-5.0807 11.3282-11.3282 11.3282-6.2475 0-11.3282-5.0807-11.3282-11.3282 0-6.2475 5.0807-11.3282 11.3282-11.3282ZM58.926 17.4055V33.304h-2.431V17.4055h2.431Zm4.4 0V33.304h-2.431V17.4055h2.431Zm46.9657-4.3027c-4.9105 0-8.8972 3.9867-8.8972 8.8972s3.9867 8.8972 8.8972 8.8972c4.8862 0 8.873-4.011 8.8972-8.8972 0-4.9105-3.9867-8.8972-8.8972-8.8972Zm0 7.2685c.8995 0 1.6287.7293 1.6287 1.6287 0 .8994-.7292 1.6287-1.6287 1.6287-.8994 0-1.6287-.7293-1.6287-1.6287 0-.8994.7293-1.6287 1.6287-1.6287ZM69.841 10.6718v2.431H49.98v-2.431H69.841Z" fill="#FFF"/><path d="M33.231 6.1746.1944.0972l17.3812 43.7326 24.2121-29.4873-8.5569-8.168Zm-.5349 2.6983 5.0564 4.8133L23.9448 16.19l8.7513-7.3172Zm-11.7657 6.8067L6.369 3.5978 30.168 7.9735l-9.2376 7.706Zm-1.0453 2.1392-2.358 19.6177L4.716 5.2022l15.169 12.6166Zm2.2121 1.021 15.2906-2.7713-17.5513 21.3923 2.2607-18.621Z" fill="#E5001E"/></g></svg>
