<svg fill="none" xmlns="http://www.w3.org/2000/svg" viewBox="0 0 129 27"><path fill="#8b3ffd" d="M24.523 0c-7.52 0-13.5 6.066-13.5 13.5 0 7.519 6.066 13.5 13.5 13.5 7.433 0 13.5-6.067 13.5-13.5.085-7.434-6.067-13.5-13.5-13.5zm0 18.541c-2.735 0-5.042-2.307-5.042-5.041 0-2.734 2.307-5.041 5.041-5.041 2.735 0 5.042 2.307 5.042 5.041 0 2.734-2.222 5.041-5.041 5.041zM11.022 3.93v19.652h-4.87L0 3.93h11.022z"/><path fill="#fff" d="M124.917 7.434l-2.991 7.348c-.085.086-.085.257-.085.342l-.086.171-.085-.17c0-.086-.086-.257-.086-.343l-2.99-7.348h-3.845l5.041 12.56-2.136 4.785h3.845l7.092-17.345h-3.674zm-28.367.683c-.683-.513-1.537-.854-2.563-.94-1.709-.17-3.332.427-4.443 1.538V7.348h-3.503v12.56h3.503V13.33c0-1.453.257-1.88.513-2.222.427-.683 1.196-1.025 2.136-1.025.94 0 1.794.427 2.221 1.111.257.513.342 1.196.342 1.538v7.177h3.503v-7.604c0-1.966-.598-3.333-1.709-4.187zM79.376 7.52c-1.709-.598-3.588-.513-5.297.256-1.11.513-2.136 1.367-2.734 2.478-.598.94-.855 2.136-.855 3.418 0 1.281.257 2.477.855 3.417s1.367 1.795 2.392 2.307c1.025.513 2.222.855 3.332.855.598 0 1.197-.086 1.795-.257.512-.17 1.025-.341 1.538-.598 1.025-.598 1.88-1.367 2.392-2.307.598-.94.855-2.136.855-3.417.085-2.82-1.538-5.212-4.273-6.152zm1.026 6.322c-.086 1.111-.428 2.051-1.111 2.65-.513.426-1.282.683-2.222.768-.94 0-1.623-.256-2.221-.769-.684-.598-1.025-1.538-1.11-2.649-.086-1.281.426-2.306 1.366-2.99.513-.342 1.196-.598 1.88-.598.769 0 1.367.256 1.965.598 1.025.598 1.538 1.709 1.453 2.99zM66.474 8.117c-.683-.513-1.538-.854-2.563-.94h-.598c-1.367 0-2.563.598-3.589 1.795l-.17.256h-.342a3.641 3.641 0 00-.94-1.025c-.684-.513-1.538-.855-2.564-.94-1.623-.171-2.905.341-4.015 1.538V7.519H48.19v12.56h3.503V13.33c0-1.368.17-1.71.427-2.137.427-.684 1.196-1.11 2.05-1.025.855 0 1.624.427 2.051 1.11.342.513.342 1.111.342 1.71v7.006h3.503v-6.75c0-1.282.17-1.71.427-2.136.427-.684 1.197-1.026 2.05-1.026.855 0 1.539.427 1.966 1.111.256.427.342.94.342 1.282v7.433h3.503v-7.69c0-.683-.085-1.367-.256-1.965-.342-.854-.855-1.623-1.624-2.136zm44.943 8.033c-.513.512-1.709 1.452-3.332 1.537-1.367.086-2.393-.341-3.162-1.11-.341-.342-.598-.855-.769-1.368h9.655v-.085c.086-.513.171-.94.171-1.453 0-.427-.085-1.025-.256-1.794-.427-1.452-1.282-2.563-2.392-3.418-1.282-.94-2.478-1.196-2.82-1.196-2.478-.427-5.298.684-6.75 2.99-1.025 1.624-.94 3.248-.94 3.76 0 .598.085 2.478 1.623 4.187 1.795 1.965 4.273 2.05 5.042 2.136 3.417.086 5.724-2.05 6.237-2.478l-2.307-1.709zm-5.981-5.298c.513-.342 1.111-.598 1.88-.598.769 0 1.367.256 1.965.598.513.427.94.94 1.196 1.538h-6.152c.086-.598.513-1.196 1.111-1.538z"/></svg>
