<svg xmlns="http://www.w3.org/2000/svg" viewBox="0 0 51 54"><path fill-rule="evenodd" fill="#fff1d9" d="M44.093 54H6.906C3.102 54 0 51.284 0 47.954v-8.3a2.14 2.14 0 012.142-2.135 2.14 2.14 0 012.142 2.135v8.3c0 .837 1.08 1.776 2.622 1.776h37.187c1.543 0 2.622-.939 2.622-1.776v-7.702a2.14 2.14 0 012.142-2.135A2.14 2.14 0 0151 40.252v7.702C51 51.284 47.898 54 44.093 54zm.172-19.589h-10.42a5.797 5.797 0 01-5.74 5.021h-5.416c-2.93 0-5.364-2.203-5.741-5.021H6.529C2.93 34.411 0 31.508 0 27.905v-10.23c0-3.586 2.93-6.506 6.529-6.506h5.878C13.332 4.867 18.799 0 25.397 0c6.581 0 12.047 4.849 12.99 11.169h5.878c3.598 0 6.529 2.92 6.529 6.506v10.23c0 3.586-2.931 6.506-6.529 6.506zm-23.084-.751c0 .82.669 1.503 1.508 1.503h5.416c.822 0 1.508-.666 1.508-1.503v-2.34c0-.819-.669-1.502-1.508-1.502h-5.416c-.822 0-1.508.665-1.508 1.502v2.34zm4.216-29.374c-4.216 0-7.763 2.955-8.637 6.9h17.274c-.874-3.945-4.421-6.9-8.637-6.9zm21.13 13.406a2.248 2.248 0 00-2.245-2.237H6.529a2.248 2.248 0 00-2.245 2.237h.017v10.23a2.249 2.249 0 002.245 2.237h10.488c.531-2.63 2.879-4.611 5.672-4.611h5.416a5.8 5.8 0 015.672 4.611h10.488a2.249 2.249 0 002.245-2.237v-10.23z"/></svg>
