<svg xmlns="http://www.w3.org/2000/svg" viewBox="0 0 54 54"><path fill-rule="evenodd" fill="#fff1d9" d="M50.046 50.044C47.496 52.596 44.105 54 40.503 54c-3.603 0-6.993-1.404-9.544-3.956l-5.867-5.859c-1.052-1.053-1.052-2.765 0-3.818 1.052-1.052 2.764-1.052 3.816 0l5.856 5.87c3.06 3.063 8.396 3.063 11.456 0 1.531-1.531 2.37-3.562 2.37-5.732 0-2.169-.839-4.2-2.37-5.731l-9.543-9.549c-3.167-3.158-8.301-3.158-11.457 0-1.052 1.053-2.763 1.053-3.816 0-1.052-1.053-1.052-2.765 0-3.818 5.261-5.263 13.827-5.263 19.088 0l9.544 9.549c2.55 2.552 3.953 5.934 3.964 9.539 0 3.605-1.403 6.997-3.954 9.549zm-24.954-36.41l-5.866-5.87c-3.167-3.158-8.301-3.158-11.457 0-1.531 1.532-2.37 3.563-2.37 5.732s.839 4.2 2.37 5.732l9.544 9.549c3.156 3.158 8.3 3.158 11.456 0 1.053-1.053 2.764-1.053 3.816 0 1.052 1.052 1.052 2.764 0 3.817-2.636 2.627-6.09 3.945-9.544 3.945-3.454 0-6.908-1.318-9.544-3.945l-9.543-9.549C1.403 20.493 0 17.101 0 13.496 0 9.88 1.403 6.499 3.954 3.947c5.26-5.264 13.826-5.264 19.087 0l5.867 5.87c1.052 1.053 1.052 2.764 0 3.817-1.052 1.053-2.764 1.053-3.816 0z"/></svg>
