<svg xmlns="http://www.w3.org/2000/svg" viewBox="0 0 40 63"><path fill-rule="evenodd" fill="#fff1d9" d="M14.142 12.422c-1.322 0-2.379-1.045-2.379-2.352s1.057-2.352 2.379-2.352c1.321 0 2.379 1.045 2.379 2.352s-1.058 2.352-2.379 2.352zm0 1.568c4.757 0 8.656 3.855 8.656 8.559 0 2.614-1.189 4.966-3.039 6.534-.86-.392-1.785-.653-2.842-.653h-.661c-.529.065-2.247.326-3.502 2.156-.066.131-.132.261-.199.326-4.031-.718-7.07-4.181-7.07-8.363 0-4.769 3.832-8.559 8.657-8.559zm-2.974 10.389c.066.719.264 1.307.727 1.699.462.457 1.057.718 1.784.784v.98c0 .13.132.261.264.261h.859c.132 0 .265-.131.265-.261v-.98c.594-.131 1.057-.327 1.387-.654.397-.392.661-.98.661-1.633 0-.719-.198-1.242-.661-1.634-.396-.392-1.123-.784-1.982-1.176-.397-.196-.661-.326-.793-.523-.132-.195-.198-.391-.198-.653 0-.261.066-.457.198-.653s.33-.261.595-.261c.264 0 .462.13.66.326.133.196.199.392.265.719 0 .131.132.261.264.261h1.388c.132 0 .264-.13.264-.261-.066-.588-.264-1.111-.594-1.503-.397-.457-.86-.719-1.454-.849v-1.046c0-.13-.133-.261-.265-.261h-.859c-.132 0-.264.131-.264.261v1.046c-.661.065-1.19.326-1.586.718-.463.392-.661.98-.661 1.634 0 .719.198 1.241.661 1.633.396.392 1.123.719 2.049 1.111.396.131.66.327.792.523.133.196.199.392.199.718 0 .262-.066.458-.199.654-.132.13-.33.261-.66.261-.331 0-.595-.131-.793-.326-.199-.196-.265-.458-.331-.784 0-.131-.132-.262-.264-.262h-1.388c-.198-.13-.33 0-.33.131zm27.226 10.715c-.727-.523-8.194-8.755-10.177-9.866v-21.3c0-2.156-1.784-3.92-3.965-3.92H3.965C1.784.008 0 1.772 0 3.928V41.17c0 2.157 1.784 3.921 3.965 3.921h8.855l-.331-3.137c0-.065-.066-.196-.066-.261H8.326c.132-.523.198-1.045.066-1.633-.264-1.634-1.586-2.941-3.238-3.202-.594-.13-1.189-.065-1.718.066V7.914c.198.065.463.065.727.065 2.181 0 3.965-1.764 3.965-3.92 0-.261 0-.457-.066-.719h12.093c-.066.196-.066.458-.066.719 0 2.156 1.784 3.92 3.965 3.92.264 0 .529 0 .727-.065v36.392c-1.388-.979-2.908-4.116-2.908-4.116s-.727-8.363-5.022-8.363h-.33s-3.239.262-.529 9.409l1.189 10.192s1.322 5.489 5.023 9.344v1.11c0 .588.528 1.111 1.123 1.111h12.027c.595 0 1.057-.392 1.123-.98.463-4.182 2.247-20.32 3.239-21.169 0 0 1.189-3.855-1.322-5.75z"/></svg>
