<svg xmlns="http://www.w3.org/2000/svg" viewBox="0 0 60 55"><path fill-rule="evenodd" fill="#fff1d9" d="M15.057 54.995L-.003 42.737l8.632-8.463a16.69 16.69 0 0117.885-3.597H37.14c2.202 0 3.988 1.777 3.988 3.968 0 2.192-1.786 3.968-3.988 3.968h-8.229a1.316 1.316 0 00-1.317 1.314c.001.724.59 1.311 1.317 1.312h9.325a4.71 4.71 0 003.512-1.571l10.054-11.407a4.152 4.152 0 015.845-.279 4.105 4.105 0 01.365 5.722L45.459 48.246a9.872 9.872 0 01-7.422 3.357H18.442l-3.385 3.392zm20.926-33.141c0 3.74 3.048 6.773 6.807 6.773 3.759 0 6.807-3.033 6.807-6.774s-3.048-6.773-6.807-6.773h-.024c-3.75.013-6.783 3.042-6.783 6.774zm-7.939-2.146c2.994 0 5.421-2.416 5.421-5.395 0-2.98-2.427-5.395-5.421-5.395s-5.421 2.415-5.421 5.395c0 2.979 2.427 5.395 5.421 5.395zm10.843-9.795c2.751 0 4.981-2.219 4.981-4.957s-2.23-4.957-4.981-4.957c-2.752 0-4.982 2.219-4.982 4.957-.003 2.738 2.224 4.96 4.976 4.963h.03l-.024-.006z"/></svg>
