<svg xmlns="http://www.w3.org/2000/svg" viewBox="0 0 60 53"><path fill-rule="evenodd" fill="#fff1d9" d="M41.248 13.098c0 3.101 2.518 5.614 5.625 5.614 3.106 0 5.625-2.513 5.625-5.614 0-3.1-2.519-5.613-5.625-5.613-3.107 0-5.625 2.513-5.625 5.613zm14.905-9.262c-5.125-5.115-13.435-5.115-18.561 0-2.084 2.081-3.321 4.687-3.71 7.391L21.889 29.368c-1.612.082-3.21.492-4.685 1.229l-9.252-7.218c-2.141-1.67-5.234-1.292-6.908.845-1.674 2.137-1.295 5.225.846 6.895l9.137 7.128c-.994 3.905.039 8.218 3.101 11.273 4.623 4.614 12.119 4.614 16.742 0 2.839-2.833 3.934-6.749 3.285-10.418l14.593-13.039c2.709-.388 5.321-1.622 7.405-3.703 5.126-5.115 5.126-13.408 0-18.524zM22.499 49.043c-4.359 0-7.892-3.526-7.892-7.877 0-.041.002-.083.003-.124l3.92 3.059c.9.702 1.968 1.042 3.028 1.042 1.462 0 2.91-.648 3.881-1.887 1.674-2.137 1.295-5.225-.847-6.895l-3.72-2.903c.525-.11 1.069-.168 1.627-.168 4.359 0 7.892 3.526 7.892 7.877 0 4.35-3.533 7.876-7.892 7.876zm24.374-26.589c-5.178 0-9.375-4.189-9.375-9.356s4.197-9.356 9.375-9.356c5.177 0 9.375 4.189 9.375 9.356s-4.198 9.356-9.375 9.356z"/></svg>
