<svg fill="none" xmlns="http://www.w3.org/2000/svg" viewBox="0 0 22 22"><path d="m13.778 4.4-.02.02.045-.02zm4.643 1.674c-2.215-1.575-4.278-1.649-4.668-1.649l-.252.24c2.78.771 4.152 1.972 4.19 2.01-4.096-1.968-8.525-2.078-12.577-.528-.617.258-.981.43-1 .441.044-.043 1.409-1.317 4.372-2.01l-.182-.177S6.026 4.315 3.56 6.06c0 0-2.46 4.112-2.46 9.18 0 0 1.365 2.273 5.103 2.359 0 0 .547-.699 1.1-1.311-2.07-.6-2.894-1.796-2.919-1.832l.705.349c2.051.815 4.228 1.838 8.097 1.225.818-.177 1.636-.349 2.454-.698.535-.264 1.19-.521 1.906-.962-.025.036-.849 1.231-3.007 1.832.453.607 1.082 1.305 1.082 1.305 3.744-.08 5.197-2.353 5.279-2.255-.006-5.062-2.479-9.18-2.479-9.18zM7.845 13.666a1.74 1.74 0 0 1-1.73-1.746c0-.969.773-1.747 1.73-1.747l.006-.006c.956 0 1.724.784 1.724 1.746a1.74 1.74 0 0 1-1.73 1.753zm6.197 0a1.74 1.74 0 0 1-1.73-1.746c0-.969.78-1.747 1.73-1.747v-.006c.956 0 1.73.784 1.73 1.746a1.737 1.737 0 0 1-1.73 1.753z" fill="#555a68"></path></svg>