<svg fill="none" xmlns="http://www.w3.org/2000/svg" viewBox="0 0 40 40"><path fill-rule="evenodd" clip-rule="evenodd" d="M37.763 5.7339a1.233 1.233 0 0 0-.5744-.2614 1.2449 1.2449 0 0 0-.6308.055C30.1972 7.781 10.6372 14.8323 2.641 17.6679a1.2136 1.2136 0 0 0-.6076.4511 1.1792 1.1792 0 0 0-.2146.718c.0085.2555.1004.501.2622.7014.1618.2004.3849.3452.6364.4117 3.5868 1.0235 8.2928 2.4592 8.2928 2.4592s2.1999 6.3754 3.3477 9.6242a1.287 1.287 0 0 0 .3468.5309c.1586.1458.3517.2509.5618.3053.2149.0542.4401.0552.6555.0028a1.3489 1.3489 0 0 0 .5784-.3035 3602.2176 3602.2176 0 0 1 4.6867-4.2537s5.4136 3.8121 8.4839 5.906c.2409.1651.519.2714.8103.309.2913.0376.5873.0057.8635-.0926a1.7368 1.7368 0 0 0 .7085-.4732 1.688 1.688 0 0 0 .3916-.7473c1.32-5.9435 4.5146-20.9764 5.7102-26.3848a1.0857 1.0857 0 0 0-.0367-.6042 1.1032 1.1032 0 0 0-.3554-.4942Zm-6.2363 5.4649L16.0985 24.5594l-.5641 5.0991-2.5444-8.0562s11.5257-7.0707 18.0202-11.0518a.4481.4481 0 0 1 .305-.0587.4423.4423 0 0 1 .2687.1532.393.393 0 0 1 .0857.2879.3983.3983 0 0 1-.1429.2659Z" fill="#555A68"></path></svg>