<svg fill="none" xmlns="http://www.w3.org/2000/svg" viewBox="0 0 22 22"><path fill-rule="evenodd" clip-rule="evenodd" d="M3.2637 3.2637C2 4.5313 2 6.5675 2 10.625v.7858c0 4.0337 0 6.0654 1.2637 7.3255C4.5313 20 6.5675 20 10.625 20h.9249c3.9415.0003 5.9409.0004 7.1863-1.2487C20 17.4838 20 15.4475 20 11.375v-.7858c0-4.0337 0-6.0654-1.2638-7.3255C17.4688 2 15.4325 2 11.375 2h-.7858C6.5555 2 4.5238 2 3.2637 3.2637Zm1.7738 4.2039c.0975 4.6874 2.4375 7.4999 6.54 7.4999l.2325.0075v-2.6775a3.7013 3.7013 0 0 1 3.105 2.6775h2.1375a5.9226 5.9226 0 0 0-3.0825-3.75 5.7145 5.7145 0 0 0 2.625-3.75H14.66c-.42 1.485-1.665 2.835-2.85 2.9625V7.4751H9.875v5.1824c-1.2-.315-2.715-1.755-2.7825-5.19h-2.055Z" fill="#555A68"></path></svg>