<svg width="32" height="32" viewBox="0 0 32 32" fill="none" xmlns="http://www.w3.org/2000/svg">
<path d="M19.2727 6.00001C20.0389 5.99992 20.7915 6.20153 21.455 6.58459C22.1185 6.96764 22.6694 7.51863 23.0525 8.18215C23.4355 8.84566 23.637 9.59833 23.6369 10.3645C23.6367 11.1306 23.4349 11.8832 23.0516 12.5466L27.4999 12.5456C27.7761 12.5455 28 12.7694 28 13.0456V14.2273C28 14.5034 27.7761 14.7273 27.5 14.7273H25.8182V25.6364C25.8182 25.9257 25.7032 26.2032 25.4987 26.4078C25.2941 26.6123 25.0166 26.7273 24.7273 26.7273H7.27273C6.9834 26.7273 6.70592 26.6123 6.50134 26.4078C6.29675 26.2032 6.18182 25.9257 6.18182 25.6364V14.7273H4.5C4.22386 14.7273 4 14.5034 4 14.2273V13.0456C4 12.7694 4.22392 12.5455 4.50011 12.5456L8.94836 12.5466C8.40712 11.6093 8.23348 10.5044 8.46114 9.44638C8.68881 8.38832 9.30154 7.45263 10.1804 6.82097C11.0592 6.18932 12.1414 5.90679 13.2168 6.02824C14.2923 6.14969 15.2842 6.66645 16 7.47819C16.4086 7.01279 16.9121 6.64012 17.4765 6.38518C18.041 6.13024 18.6534 5.99892 19.2727 6.00001ZM17.0909 15.2273C17.0909 14.9511 16.8671 14.7273 16.5909 14.7273H15.4091C15.1329 14.7273 14.9091 14.9511 14.9091 15.2273V25.1364C14.9091 25.4125 15.1329 25.6364 15.4091 25.6364H16.5909C16.8671 25.6364 17.0909 25.4125 17.0909 25.1364V15.2273ZM12.7273 8.18182C12.1611 8.17929 11.6161 8.39694 11.2075 8.78878C10.7988 9.18063 10.5585 9.71599 10.5372 10.2818C10.516 10.8475 10.7155 11.3994 11.0936 11.8208C11.4718 12.2422 11.9989 12.5001 12.5636 12.54L12.7273 12.5455H14.9091V10.3636C14.9091 9.84226 14.7224 9.3381 14.3828 8.94247C14.0432 8.54684 13.5732 8.28591 13.0578 8.20692L12.8898 8.18728L12.7273 8.18182ZM19.2727 8.18182C18.7223 8.18165 18.1921 8.38954 17.7885 8.76382C17.3849 9.1381 17.1376 9.65111 17.0964 10.2L17.0909 10.3636V12.5455H19.2727C19.8232 12.5456 20.3533 12.3377 20.757 11.9635C21.1606 11.5892 21.4078 11.0762 21.4491 10.5273L21.4545 10.3636C21.4545 9.78499 21.2247 9.23003 20.8155 8.82086C20.4063 8.41169 19.8514 8.18182 19.2727 8.18182Z" fill="#564A66"/>
</svg>
