<svg width="32" height="32" viewBox="0 0 32 32" fill="none" xmlns="http://www.w3.org/2000/svg">
<path d="M17.2175 25.9186L7 15.7012V17.7885C7 18.3416 7.21917 18.8739 7.61576 19.2601L15.7459 27.3902C16.5599 28.2042 17.8854 28.2042 18.6995 27.3902L25.1806 20.909C25.9947 20.095 25.9947 18.7695 25.1806 17.9555L17.2175 25.9186Z" fill="#564A66"/>
<path d="M15.7459 22.1702C16.5599 22.9842 17.8854 22.9842 18.6995 22.1702L25.1806 15.689C25.9947 14.875 25.9947 13.5495 25.1806 12.7355L17.0505 4.60532C16.6539 4.21917 16.1216 4 15.5685 4H9.08733C7.9393 4 7 4.9393 7 6.08733V12.5685C7 13.1216 7.21917 13.6539 7.61576 14.04L15.7459 22.1702ZM11.4356 7.13099C12.1557 7.13099 12.7401 7.71544 12.7401 8.43557C12.7401 9.15569 12.1557 9.74014 11.4356 9.74014C10.7154 9.74014 10.131 9.15569 10.131 8.43557C10.131 7.71544 10.7154 7.13099 11.4356 7.13099Z" fill="#564A66"/>
</svg>
